<?xml version="1.0" standalone="no"?>
<!DOCTYPE svg PUBLIC "-//W3C//DTD SVG 20010904//EN"
 "http://www.w3.org/TR/2001/REC-SVG-20010904/DTD/svg10.dtd">
<svg version="1.0" xmlns="http://www.w3.org/2000/svg"
 width="512.000000pt" height="512.000000pt" viewBox="0 0 512.000000 512.000000"
 preserveAspectRatio="xMidYMid meet">
<metadata>
Created by potrace 1.14, written by Peter Selinger 2001-2017
</metadata>
<g transform="translate(0.000000,512.000000) scale(0.100000,-0.100000)"
fill="#000000" stroke="none">
<path d="M4056 4162 c-2 -1 -48 -4 -102 -7 -54 -3 -137 -7 -184 -9 -85 -5
-224 -13 -395 -21 -108 -6 -226 -13 -355 -21 -52 -3 -115 -7 -140 -8 -25 -2
-51 -4 -57 -4 -10 -2 -13 -73 -13 -321 l0 -319 28 -5 c15 -2 70 -14 122 -26
52 -13 102 -24 110 -26 8 -1 35 -9 60 -16 28 -9 99 -14 190 -14 l145 0 1 -242
0 -243 -30 -1 c-17 0 -141 -2 -276 -4 -135 -1 -270 -3 -300 -4 l-55 -1 0 -330
c0 -213 4 -330 10 -331 6 0 150 -2 320 -4 171 -3 312 -5 315 -6 3 -1 7 -1 11
-1 3 0 5 -231 5 -514 l0 -515 -140 3 c-126 3 -146 1 -186 -18 -25 -11 -110
-47 -190 -79 l-145 -58 2 -309 c0 -170 3 -311 5 -314 6 -5 110 -15 323 -29 92
-6 213 -16 260 -21 28 -2 84 -7 125 -9 41 -3 100 -7 130 -10 53 -5 123 -10
260 -20 148 -10 225 -17 232 -21 4 -3 15 3 26 13 10 10 49 46 87 79 39 34 94
84 123 111 l52 49 0 1729 0 1730 -60 35 c-33 19 -60 38 -60 42 0 5 -3 7 -7 6
-5 -1 -39 18 -77 43 -57 37 -76 44 -118 44 -27 0 -51 -1 -52 -3z"/>
<path d="M2088 4054 c-2 -1 -64 -5 -138 -9 -74 -3 -160 -8 -190 -10 -30 -1
-113 -6 -185 -10 -146 -7 -215 -11 -372 -20 -59 -4 -137 -8 -173 -10 -36 -2
-126 -6 -200 -10 -74 -4 -141 -7 -147 -8 -16 0 -14 99 -16 -885 l-2 -842 50
-1 c28 0 189 -2 360 -5 171 -2 347 -4 393 -5 77 -1 82 -2 83 -23 0 -11 1 -229
2 -484 2 -404 0 -462 -13 -463 -8 -1 -44 0 -80 1 -191 9 -241 4 -409 -39 -91
-23 -174 -43 -185 -45 -12 -2 -48 -11 -81 -19 -33 -8 -72 -18 -88 -21 l-27 -6
2 -291 3 -291 55 -3 c95 -6 223 -15 275 -21 28 -2 79 -7 115 -9 36 -2 94 -7
130 -10 36 -2 98 -7 138 -10 39 -3 102 -7 140 -11 37 -3 90 -7 117 -9 157 -13
196 -15 255 -19 154 -11 245 -19 252 -23 7 -3 101 36 138 58 8 5 25 13 38 19
43 19 108 49 207 97 l100 48 0 1083 c0 953 -2 1083 -15 1087 -8 2 -55 7 -105
10 -49 3 -119 9 -155 12 -36 3 -182 7 -325 8 l-260 1 -2 227 -2 227 22 -1 c12
0 81 2 152 5 186 6 617 18 635 18 8 0 24 1 35 3 20 4 20 12 20 279 -1 152 -3
277 -6 279 -2 2 -103 37 -224 78 -136 45 -238 74 -267 74 -27 1 -49 1 -50 -1z"/>
</g>
</svg>
