<?xml version="1.0" standalone="no"?>
<!DOCTYPE svg PUBLIC "-//W3C//DTD SVG 20010904//EN"
 "http://www.w3.org/TR/2001/REC-SVG-20010904/DTD/svg10.dtd">
<svg version="1.0" xmlns="http://www.w3.org/2000/svg"
 width="512.000000pt" height="512.000000pt" viewBox="0 0 512.000000 512.000000"
 preserveAspectRatio="xMidYMid meet">
<metadata>
Created by potrace 1.14, written by Peter Selinger 2001-2017
</metadata>
<g transform="translate(0.000000,512.000000) scale(0.100000,-0.100000)"
fill="#000000" stroke="none">
<path d="M2292 4882 c-40 -37 -55 -50 -198 -177 -43 -38 -86 -77 -94 -85 -14
-14 -146 -132 -219 -196 -18 -16 -52 -47 -76 -69 -23 -22 -55 -51 -71 -64 -16
-13 -52 -45 -79 -70 -28 -25 -81 -73 -118 -106 -38 -33 -87 -78 -111 -100 -23
-22 -70 -65 -105 -95 -34 -30 -77 -68 -95 -85 -18 -16 -68 -61 -112 -100 -43
-38 -95 -84 -114 -102 -19 -18 -49 -45 -66 -60 -17 -15 -69 -62 -114 -103 -46
-41 -92 -83 -104 -93 -12 -10 -55 -49 -96 -86 -41 -38 -88 -80 -105 -94 l-30
-25 23 -88 c13 -49 25 -96 27 -104 4 -14 15 -58 66 -250 11 -41 22 -82 24 -90
4 -18 30 -117 86 -329 22 -86 43 -163 45 -171 3 -8 5 -16 6 -17 0 -2 9 -35 19
-75 11 -40 22 -84 25 -98 2 -14 7 -32 10 -40 6 -16 61 -220 69 -255 3 -11 26
-99 51 -195 26 -96 47 -179 49 -185 1 -5 7 -30 14 -55 7 -25 15 -52 16 -60 3
-12 22 -82 41 -150 2 -8 9 -38 15 -66 10 -48 14 -52 53 -64 22 -8 46 -14 51
-16 6 -1 69 -18 140 -37 72 -20 229 -63 350 -96 272 -75 281 -77 330 -93 22
-7 42 -13 45 -13 37 -8 83 -19 117 -31 24 -7 57 -16 75 -19 17 -3 35 -8 39
-10 4 -3 73 -23 153 -45 80 -22 212 -58 294 -80 232 -65 219 -62 250 -42 15 9
29 19 32 22 3 3 86 59 185 125 99 66 182 123 183 128 2 4 9 7 15 7 6 0 19 7
29 17 10 9 27 21 38 27 11 6 129 85 262 175 134 91 277 188 318 215 41 28 77
54 78 59 2 4 7 7 12 7 5 0 60 35 123 77 63 43 121 83 129 88 71 47 284 191
288 195 3 3 43 30 90 62 47 31 131 87 186 125 l101 69 -16 32 c-67 131 -87
170 -139 267 -133 251 -177 335 -221 420 -25 50 -48 92 -51 95 -3 3 -21 37
-41 75 -19 39 -64 124 -98 190 -35 66 -83 156 -106 200 -23 44 -66 125 -95
180 -96 183 -152 289 -198 375 -25 47 -54 101 -63 121 -17 35 -42 55 -272 218
-34 24 -63 48 -65 53 -2 4 -10 8 -18 8 -8 0 -14 4 -14 8 0 4 -12 15 -27 24
-16 9 -37 24 -48 32 -42 33 -242 178 -295 214 -30 20 -61 43 -68 50 -8 6 -35
26 -60 44 -26 18 -51 36 -57 40 -13 11 -167 123 -306 223 -62 44 -118 86 -125
93 -7 6 -15 12 -18 12 -4 0 -164 115 -192 139 -7 6 -25 -3 -52 -27z"/>
</g>
</svg>
